<svg width="257" height="199" viewBox="0 0 257 199" fill="none" xmlns="http://www.w3.org/2000/svg">
<path fill-rule="evenodd" clip-rule="evenodd" d="M20 182C25.5228 182 30 177.523 30 172V80.2525C30 71.0746 41.3293 66.7445 47.4508 73.5827L70.3666 99.1818C70.906 99.8711 71.5135 100.523 72.1884 101.127C75.7444 104.309 80.3989 105.484 84.7624 104.729C87.4522 104.27 90.0493 103.073 92.2324 101.118C92.865 100.552 93.4382 99.9443 93.9517 99.3028L120.456 69.6911C124.43 65.25 131.383 65.25 135.358 69.6911L167.564 105.673V105.673C168.938 107.209 170 109.085 170 111.146V159C170 164.523 165.523 169 160 169H64C58.4772 169 54 173.477 54 179V179C54 190.046 62.9543 199 74 199H180C191.046 199 200 190.046 200 179V169V110.992C200 108.991 201.023 107.165 202.358 105.673V105.673L252.917 49.1846C258.442 43.0117 257.917 33.5288 251.744 28.0038C245.572 22.4789 236.089 23.0041 230.564 29.1769L192.412 71.8023C188.437 76.2434 181.484 76.2434 177.509 71.8023L139.358 29.1769C133.93 23.113 124.683 22.4991 118.507 27.717C117.377 28.4371 116.326 29.3216 115.389 30.3685L89.6632 59.1114C85.6885 63.5522 78.7362 63.5525 74.7612 59.112L26.7095 5.43393C21.184 -0.738486 11.7011 -1.26296 5.52865 4.26247C5.12045 4.62789 4.73694 5.01062 4.37826 5.40855C1.67269 8.12181 0 11.8656 0 16V162C0 173.046 8.9543 182 20 182V182Z" fill="white"/>
</svg>
