<svg xmlns="http://www.w3.org/2000/svg" viewBox="-1 712.949 49.74 40.53">
	<path d="M 0 750 C 2 726.75 8 709.5 8 715.5 C 7 726.75 6 738 5 749.25 C 11 716.25 13 713.25 13 717 C 12 727.75 11 738.5 10 749.25 C 14 720.75 18 713.25 18 717 C 17 727.75 16 738.5 15 749.25 C 21 714 19 711.75 19 742.5 C 19 744.75 19 747.25 19 749.25 C 21 732 23 714.75 22 743.25 C 22 745.25 22 747.25 22 749.25 C 24 734.25 25 716.25 25 743.25 C 25 745.25 25 747 25 749.25 C 27 735 28 718.5 28 743.25 C 28 745.25 28 747.25 28 749.25 C 28 752.25 31 746.25 31 743.25 C 30.6667 745.25 29 750 30 749.25 C 30 749.25 30 749.25 30 749.25 C 30 749.25 35 747.75 34 743.25 C 33.6667 745.25 31 750.75 33 749.25 S 36.3333 745.25 38 743.25 S 43 742.5 45 743.25 S 46 747 44 748.5 S 40 750 38 749.25 S 36 747.75 36 746.25 S 36 748.5 38 749.25 S 42 750 44 748.5 S 46 745.5 46 744 C 48 711 46 711 46 717 C 46.3333 728.25 49 750.75 47 750.75 C -23 751.5 15 753.75 0 751.5" stroke="#ffffff" stroke-width="1" fill="none"/>
</svg>