<svg xmlns="http://www.w3.org/2000/svg" viewBox="-0.1 13.5399 97.12 60.15">
	<path d="M 0 67.4831 C 0 73.5566 3 74.9063 4 71.5321 C 14 17.5456 15 10.7973 17 16.8708 C 29 45.2137 26 53.9865 24 51.2872 C 20 44.5389 30 37.1157 37 16.8708 C 40 11.4721 41 26.9932 44 70.8573 C 44 70.8573 44 70.8573 44 70.8573 C 45 76.2559 48 72.8818 52 67.4831 M 55 16.8708 C 68 12.8218 103 12.8218 96 15.5211 C 85 16.1959 74 15.5211 76 20.9198 C 81 42.5144 84 49.9375 89 63.4341 C 91 69.5076 89 70.1824 86 70.1824 C 63 70.8573 61 73.5566 59 70.1824 C 56 64.7838 57 62.7593 58 66.1335" stroke="#ffffff" stroke-width="1" fill="none"/>
</svg>