<svg width="371" height="328" viewBox="0 0 371 328" fill="none" xmlns="http://www.w3.org/2000/svg">
<path fill-rule="evenodd" clip-rule="evenodd" d="M171 0C159.954 0 151 8.95431 151 20V30C151 35.5228 155.477 40 161 40H225.786C234.43 40 239.002 50.2278 233.237 56.6692L151.39 148.113C147.416 152.554 140.463 152.554 136.488 148.114L35.1426 34.9015C27.7754 26.6716 15.1314 25.9723 6.90153 33.3396C2.99299 36.8384 0.78297 41.5274 0.328874 46.3685C0.112862 47.5462 0 48.7599 0 50V252C0 263.046 8.95431 272 20 272H30C35.5228 272 40 267.523 40 262V126.463C40 117.285 51.3293 112.955 57.4508 119.794L128.731 199.42C132.677 203.829 138.139 206.076 143.624 206.08C149.318 206.253 155.047 204.005 159.144 199.428L233.549 116.298C239.67 109.459 251 113.789 251 122.967V278C251 283.523 246.523 288 241 288H50C44.4772 288 40 292.477 40 298V308C40 319.046 48.9543 328 60 328H271C282.046 328 291 319.046 291 308V288V50C291 44.4772 295.477 40 301 40H361C366.523 40 371 35.5228 371 30V20C371 8.95431 362.046 0 351 0H171Z" fill="white"/>
</svg>
