<svg xmlns="http://www.w3.org/2000/svg" viewBox="-1 950.932 49.74 53.37">
	<path d="M 0 1000 C 2 969 8 946 8 954 C 7 969 6 984 5 999 C 11 955 13 951 13 956 C 12 970.3333 11 984.6667 10 999 C 14 961 18 951 18 956 C 17 970.3333 16 984.6667 15 999 C 21 952 19 949 19 990 C 19 993 19 996.3333 19 999 C 21 976 23 953 22 991 C 22 993.6667 22 996.3333 22 999 C 24 979 25 955 25 991 C 25 993.6667 25 996 25 999 C 27 980 28 958 28 991 C 28 993.6667 28 996.3333 28 999 C 28 1003 31 995 31 991 C 30.6667 993.6667 29 1000 30 999 C 30 999 30 999 30 999 C 30 999 35 997 34 991 C 33.6667 993.6667 31 1001 33 999 S 36.3333 993.6667 38 991 S 43 990 45 991 S 46 996 44 998 S 40 1000 38 999 S 36 997 36 995 S 36 998 38 999 S 42 1000 44 998 S 46 994 46 992 C 48 948 46 948 46 956 C 46.3333 971 49 1001 47 1001 C -23 1002 15 1005 0 1002" stroke="#ffffff" stroke-width="0.1" fill="none"/>
</svg>